<svg width="59" height="68" viewBox="0 0 59 68" fill="none" xmlns="http://www.w3.org/2000/svg">
<path fill-rule="evenodd" clip-rule="evenodd" d="M52.0588 68H6.94118C5.10026 68 3.33475 67.377 2.03302 66.2681C0.7313 65.1592 0 63.6552 0 62.087V5.91304C0 4.34481 0.7313 2.8408 2.03302 1.73189C3.33475 0.62298 5.10026 0 6.94118 0H39.9118C40.4671 0 40.9408 0.238 41.2584 0.583913L58.3146 15.1137C58.5248 15.2471 58.696 15.42 58.8149 15.619C58.9338 15.8179 58.9971 16.0376 59 16.2609V62.087C59 63.6552 58.2687 65.1592 56.967 66.2681C55.6653 67.377 53.8997 68 52.0588 68ZM41.6471 4.998V14.7826H53.133L41.6471 4.998ZM55.5294 17.7391H39.9118C39.4515 17.7391 39.0102 17.5834 38.6847 17.3062C38.3593 17.0289 38.1765 16.6529 38.1765 16.2609V2.95652H6.94118C6.02072 2.95652 5.13796 3.26801 4.4871 3.82247C3.83624 4.37692 3.47059 5.12893 3.47059 5.91304V62.087C3.47059 62.8711 3.83624 63.6231 4.4871 64.1775C5.13796 64.732 6.02072 65.0435 6.94118 65.0435H52.0588C52.9793 65.0435 53.862 64.732 54.5129 64.1775C55.1638 63.6231 55.5294 62.8711 55.5294 62.087V17.7391ZM45.1176 56.1739H13.8824C13.4221 56.1739 12.9807 56.0182 12.6553 55.7409C12.3299 55.4637 12.1471 55.0877 12.1471 54.6957C12.1471 54.3036 12.3299 53.9276 12.6553 53.6504C12.9807 53.3731 13.4221 53.2174 13.8824 53.2174H45.1176C45.5779 53.2174 46.0193 53.3731 46.3447 53.6504C46.6701 53.9276 46.8529 54.3036 46.8529 54.6957C46.8529 55.0877 46.6701 55.4637 46.3447 55.7409C46.0193 56.0182 45.5779 56.1739 45.1176 56.1739ZM45.1176 44.3478H13.8824C13.4221 44.3478 12.9807 44.1921 12.6553 43.9149C12.3299 43.6376 12.1471 43.2616 12.1471 42.8696C12.1471 42.4775 12.3299 42.1015 12.6553 41.8243C12.9807 41.547 13.4221 41.3913 13.8824 41.3913H45.1176C45.5779 41.3913 46.0193 41.547 46.3447 41.8243C46.6701 42.1015 46.8529 42.4775 46.8529 42.8696C46.8529 43.2616 46.6701 43.6376 46.3447 43.9149C46.0193 44.1921 45.5779 44.3478 45.1176 44.3478ZM45.1176 32.5217H13.8824C13.4221 32.5217 12.9807 32.366 12.6553 32.0888C12.3299 31.8115 12.1471 31.4355 12.1471 31.0435C12.1471 30.6514 12.3299 30.2754 12.6553 29.9982C12.9807 29.721 13.4221 29.5652 13.8824 29.5652H45.1176C45.5779 29.5652 46.0193 29.721 46.3447 29.9982C46.6701 30.2754 46.8529 30.6514 46.8529 31.0435C46.8529 31.4355 46.6701 31.8115 46.3447 32.0888C46.0193 32.366 45.5779 32.5217 45.1176 32.5217Z" fill="#0085FF"/>
</svg>
