<svg width="59" height="69" viewBox="0 0 59 69" fill="none" xmlns="http://www.w3.org/2000/svg">
<path d="M58.7019 33.687L42.7241 15.6239V4.6C42.7241 3.38 42.2954 2.20998 41.5324 1.34731C40.7693 0.484642 39.7343 0 38.6552 0H4.06897C2.98981 0 1.95485 0.484642 1.19177 1.34731C0.428693 2.20998 0 3.38 0 4.6V57.5C0 58.72 0.428693 59.89 1.19177 60.7527C1.95485 61.6154 2.98981 62.1 4.06897 62.1H35.6787L34.6096 67.6028C34.5769 67.7708 34.5779 67.945 34.6127 68.1125C34.6474 68.28 34.7149 68.4366 34.8103 68.5706C34.9057 68.7047 35.0265 68.8129 35.1637 68.8872C35.301 68.9615 35.4513 69.0001 35.6034 69H53.9138C54.1617 68.9999 54.401 68.8975 54.5868 68.712C54.7727 68.5265 54.8922 68.2707 54.9229 67.9926L55.8974 59.1848L58.7019 56.0131C58.8927 55.7974 58.9999 55.505 59 55.2V34.5C58.9999 34.195 58.8927 33.9026 58.7019 33.687ZM4.06897 59.8C3.52939 59.8 3.01191 59.5577 2.63037 59.1264C2.24883 58.695 2.03448 58.11 2.03448 57.5V4.6C2.03448 3.99 2.24883 3.40499 2.63037 2.97365C3.01191 2.54232 3.52939 2.3 4.06897 2.3H38.6552C39.1948 2.3 39.7122 2.54232 40.0938 2.97365C40.4753 3.40499 40.6897 3.99 40.6897 4.6V35.1739L35.7265 29.5631C35.1543 28.9163 34.3782 28.5529 33.569 28.5529C32.7598 28.5529 31.9837 28.9163 31.4114 29.5631L29.202 32.0609C28.6298 32.7078 28.3084 33.5852 28.3084 34.5C28.3084 35.4148 28.6298 36.2922 29.202 36.9391L36.7651 45.4894C35.4061 47.1389 34.6312 49.2959 34.5881 51.5495C34.5449 53.8032 35.2365 55.996 36.5312 57.7105L36.1253 59.8H4.06897ZM56.9655 54.7239L54.2118 57.837C54.052 58.0178 53.95 58.2537 53.9219 58.5074L53.0156 66.7H36.8679L38.6318 57.615C38.6681 57.428 38.6626 57.2337 38.6157 57.0498C38.5688 56.8658 38.482 56.698 38.3632 56.5616C37.7699 55.8782 37.3094 55.0622 37.0112 54.1659C36.713 53.2696 36.5837 52.3127 36.6316 51.3567C36.6795 50.4006 36.9035 49.4664 37.2893 48.6138C37.675 47.7613 38.2141 47.0093 38.8718 46.406C38.9825 46.3045 39.0731 46.1778 39.1377 46.0342C39.2024 45.8906 39.2396 45.7333 39.247 45.5724C39.2543 45.4115 39.2317 45.2506 39.1806 45.1002C39.1295 44.9498 39.051 44.8132 38.9502 44.6993L30.6434 35.3084C30.4527 35.0928 30.3455 34.8003 30.3455 34.4954C30.3455 34.1905 30.4527 33.898 30.6434 33.6824L32.8528 31.1846C33.0436 30.969 33.3023 30.8478 33.572 30.8478C33.8418 30.8478 34.1004 30.969 34.2912 31.1846L44.0425 42.2085L45.4809 40.5824L42.7241 37.4739V31.5261L45.0567 34.1631L46.4951 32.5369L42.7241 28.2739V18.8761L56.9655 34.9761V54.7239Z" fill="#FF9E00"/>
<path d="M21.362 33.3501C24.1247 33.3465 26.8044 32.2823 28.9621 30.3319C31.1198 28.3815 32.6277 25.6605 33.2387 22.6147C33.8497 19.5688 33.5276 16.3786 32.3251 13.5668C31.1227 10.7549 29.1112 8.48807 26.6202 7.13757C24.1291 5.78706 21.3063 5.43297 18.6139 6.1333C15.9216 6.83363 13.5195 8.54686 11.8011 10.9923C10.0827 13.4378 9.1498 16.4705 9.15532 19.5938C9.16084 22.717 10.1044 25.7455 11.8315 28.1831C12.9747 29.7984 14.4252 31.1017 16.0752 31.9962C17.7251 32.8907 19.5321 33.3535 21.362 33.3501ZM15.283 20.7001C15.3251 22.1143 15.4662 23.5224 15.7051 24.9114C14.7523 25.1731 13.8238 25.537 12.9321 25.9981C11.9831 24.4213 11.4022 22.5988 11.2435 20.7001H15.283ZM17.35 30.1059C16.2236 29.561 15.1938 28.7899 14.3105 27.8301C14.9292 27.5511 15.5641 27.3206 16.2107 27.1401C16.4918 28.1735 16.8739 29.1683 17.35 30.1059ZM18.2574 26.718C20.3163 26.401 22.4037 26.401 24.4626 26.718C23.663 29.3895 22.481 31.0501 21.362 31.0501C20.2431 31.0501 19.061 29.3895 18.2574 26.718ZM26.5133 27.1389C27.1601 27.3191 27.795 27.5496 28.4135 27.8289C27.5303 28.788 26.5004 29.5579 25.374 30.1013C25.85 29.1652 26.2321 28.1708 26.5133 27.1389ZM25.374 8.99424C26.5004 9.53918 27.5302 10.3102 28.4135 11.2701C27.7949 11.5491 27.16 11.7796 26.5133 11.9601C26.2322 10.9267 25.8501 9.93192 25.374 8.99424ZM24.4666 12.3821C22.4078 12.6992 20.3204 12.6992 18.2615 12.3821C19.061 9.71069 20.2481 8.05009 21.362 8.05009C22.4759 8.05009 23.663 9.71069 24.4666 12.3821ZM16.2107 11.9601C15.564 11.78 14.9291 11.5494 14.3105 11.2701C15.194 10.3111 16.2238 9.54079 17.35 8.99654C16.8742 9.93356 16.4921 10.9275 16.2107 11.9601ZM17.7264 14.6177C18.9293 14.8306 20.1445 14.9416 21.362 14.9501C22.5795 14.942 23.7947 14.8313 24.9976 14.6189C25.2225 15.865 25.3586 17.1294 25.4045 18.4001H17.3164C17.3634 17.1293 17.5005 15.8637 17.7264 14.6177ZM25.4076 20.7001C25.3616 21.9711 25.2256 23.236 25.0007 24.4824C22.5898 24.0834 20.1403 24.0834 17.7294 24.4824C17.5046 23.236 17.3686 21.9711 17.3225 20.7001H25.4076ZM29.7909 25.9981C28.8997 25.5366 27.9715 25.1727 27.0189 24.9114C27.2578 23.5224 27.399 22.1143 27.4411 20.7001H31.4805C31.3219 22.599 30.7406 24.4217 29.7909 25.9981ZM31.4805 18.4001H27.4411C27.399 16.9859 27.2578 15.5777 27.0189 14.1888C27.9717 13.9271 28.9003 13.5632 29.7919 13.102C30.7409 14.6788 31.3218 16.5014 31.4805 18.4001ZM12.9332 13.102C13.8245 13.5631 14.7527 13.927 15.7051 14.1888C15.4662 15.5777 15.3251 16.9859 15.283 18.4001H11.2435C11.4021 16.5012 11.9834 14.6785 12.9332 13.102Z" fill="#FF9E00"/>
<path d="M27.4655 36.8H9.15517V39.1H27.4655V36.8Z" fill="#FF9E00"/>
<path d="M20.3448 42.55H9.15517V44.85H20.3448V42.55Z" fill="#FF9E00"/>
<path d="M32.5517 42.55H22.3793V44.85H32.5517V42.55Z" fill="#FF9E00"/>
<path d="M13.2241 47.15H9.15517C8.88538 47.15 8.62664 47.2712 8.43587 47.4868C8.2451 47.7025 8.13793 47.995 8.13793 48.3V56.35H10.1724V54.05H13.2241C13.4939 54.05 13.7527 53.9288 13.9434 53.7132C14.1342 53.4975 14.2414 53.205 14.2414 52.9V48.3C14.2414 47.995 14.1342 47.7025 13.9434 47.4868C13.7527 47.2712 13.4939 47.15 13.2241 47.15ZM12.2069 51.75H10.1724V49.45H12.2069V51.75Z" fill="#FF9E00"/>
<path d="M20.3448 47.15H16.2759C16.0061 47.15 15.7473 47.2712 15.5566 47.4868C15.3658 47.7025 15.2586 47.995 15.2586 48.3V56.35H17.2931V54.05H19.3276V56.35H21.3621V48.3C21.3621 47.995 21.2549 47.7025 21.0641 47.4868C20.8734 47.2712 20.6146 47.15 20.3448 47.15ZM17.2931 51.75V49.45H19.3276V51.75H17.2931Z" fill="#FF9E00"/>
<path d="M22.3793 48.3V51.75C22.3793 52.055 22.4865 52.3475 22.6773 52.5632C22.868 52.7788 23.1268 52.9 23.3966 52.9H25.431V54.05H22.3793V56.35H26.4483C26.7181 56.35 26.9768 56.2288 27.1676 56.0132C27.3583 55.7975 27.4655 55.505 27.4655 55.2V51.75C27.4655 51.445 27.3583 51.1525 27.1676 50.9368C26.9768 50.7212 26.7181 50.6 26.4483 50.6H24.4138V49.45H27.4655V47.15H23.3966C23.1268 47.15 22.868 47.2712 22.6773 47.4868C22.4865 47.7025 22.3793 47.995 22.3793 48.3Z" fill="#FF9E00"/>
<path d="M28.4828 48.3V51.75C28.4828 52.055 28.5899 52.3475 28.7807 52.5632C28.9715 52.7788 29.2302 52.9 29.5 52.9H31.5345V54.05H28.4828V56.35H32.5517C32.8215 56.35 33.0803 56.2288 33.271 56.0132C33.4618 55.7975 33.569 55.505 33.569 55.2V51.75C33.569 51.445 33.4618 51.1525 33.271 50.9368C33.0803 50.7212 32.8215 50.6 32.5517 50.6H30.5172V49.45H33.569V47.15H29.5C29.2302 47.15 28.9715 47.2712 28.7807 47.4868C28.5899 47.7025 28.4828 47.995 28.4828 48.3Z" fill="#FF9E00"/>
<path d="M5.08621 5.75H3.05172V56.35H5.08621V5.75Z" fill="#FF9E00"/>
</svg>
