<svg width="44" height="57" viewBox="0 0 44 57" fill="none" xmlns="http://www.w3.org/2000/svg">
<path fill-rule="evenodd" clip-rule="evenodd" d="M0 6.45833C0 2.89152 2.7018 0 6.03495 0H37.965C41.298 0 44 2.89152 44 6.45833V28.0976C43.9994 28.0983 43.9987 28.099 43.998 28.0996C39.3358 33.0759 29.6433 43.4253 28.1709 45.0127C26.3304 46.9967 25.9108 49.9222 25.8703 50.5159C25.8471 50.8538 25.7261 52.0604 25.6075 53.2415C25.5178 54.1354 25.4295 55.0148 25.3863 55.4925C25.3285 56.1317 25.3706 56.6044 25.4744 57H6.03495C2.7018 57 0 54.1085 0 50.5417V6.45833ZM6.94671 12.8708C6.94671 11.444 8.02749 10.2874 9.36072 10.2874H34.638C35.9712 10.2874 37.052 11.444 37.052 12.8708C37.052 14.2974 35.9712 15.454 34.638 15.454H9.36072C8.02749 15.454 6.94671 14.2974 6.94671 12.8708ZM9.36072 20.755C8.02749 20.755 6.94671 21.9116 6.94671 23.3384C6.94671 24.7652 8.02749 25.9218 9.36072 25.9218H34.638C35.9712 25.9218 37.052 24.7652 37.052 23.3384C37.052 21.9116 35.9712 20.755 34.638 20.755H9.36072ZM6.94671 33.806C6.94671 32.3794 8.02749 31.2228 9.36072 31.2228H21.9672C23.3005 31.2228 24.3813 32.3794 24.3813 33.806C24.3813 35.2328 23.3005 36.3894 21.9672 36.3894H9.36072C8.02749 36.3894 6.94671 35.2328 6.94671 33.806Z" fill="white"/>
</svg>
