<svg width="45" height="45" viewBox="0 0 45 45" fill="none" xmlns="http://www.w3.org/2000/svg">
<path fill-rule="evenodd" clip-rule="evenodd" d="M33.023 0H11.0077C4.954 0 0 5.00867 0 11.1341V33.4023C0 39.5255 4.954 44.5364 11.0077 44.5364H33.023C39.0767 44.5364 44.0307 39.5255 44.0307 33.4023V11.1341C44.0307 5.00867 39.0767 0 33.023 0ZM22.0152 31.5463C16.9484 31.5463 12.842 27.3911 12.842 22.2683C12.842 17.1433 16.9484 12.9897 22.0152 12.9897C27.0799 12.9897 31.1885 17.1433 31.1885 22.2683C31.1885 27.3911 27.0799 31.5463 22.0152 31.5463ZM31.1885 10.206C31.1885 11.7431 32.4192 12.9896 33.9404 12.9896C35.4617 12.9896 36.6923 11.7431 36.6923 10.206C36.6923 8.66899 35.4617 7.42253 33.9404 7.42253C32.4192 7.42253 31.1885 8.66899 31.1885 10.206Z" fill="black"/>
</svg>
