<svg width="24" height="25" viewBox="0 0 24 25" fill="none" xmlns="http://www.w3.org/2000/svg">
<path fill-rule="evenodd" clip-rule="evenodd" d="M17.9362 0.936035H6.47207C3.31971 0.936035 0.73999 3.54423 0.73999 6.73395V18.3298C0.73999 21.5183 3.31971 24.1277 6.47207 24.1277H17.9362C21.0886 24.1277 23.6683 21.5183 23.6683 18.3298V6.73395C23.6683 3.54423 21.0886 0.936035 17.9362 0.936035ZM12.2042 17.3633C9.56567 17.3633 7.42732 15.1995 7.42732 12.5319C7.42732 9.86308 9.56567 7.70017 12.2042 7.70017C14.8415 7.70017 16.981 9.86308 16.981 12.5319C16.981 15.1995 14.8415 17.3633 12.2042 17.3633ZM16.981 6.25069C16.981 7.05109 17.6218 7.70017 18.414 7.70017C19.2062 7.70017 19.847 7.05109 19.847 6.25069C19.847 5.45029 19.2062 4.80122 18.414 4.80122C17.6218 4.80122 16.981 5.45029 16.981 6.25069Z" fill="white"/>
</svg>
