<svg width="26" height="21" viewBox="0 0 26 21" fill="none" xmlns="http://www.w3.org/2000/svg">
<path d="M23.248 5.37437C23.2645 5.59985 23.2645 5.82403 23.2645 6.04822C23.2645 12.9091 18.1018 20.8148 8.66681 20.8148C5.76001 20.8148 3.05956 19.9632 0.787109 18.4841C1.19982 18.5318 1.59724 18.5485 2.02651 18.5485C4.42507 18.5485 6.63256 17.7291 8.39677 16.3311C6.14088 16.2835 4.25056 14.7889 3.59838 12.7326C3.91555 12.7802 4.234 12.8124 4.56774 12.8124C5.02758 12.8124 5.48996 12.748 5.91923 12.6359C3.56653 12.1541 1.80487 10.0655 1.80487 7.54279V7.47837C2.4889 7.86361 3.28248 8.10455 4.12318 8.13676C2.74111 7.20651 1.83544 5.61531 1.83544 3.81538C1.83544 2.85164 2.08893 1.96778 2.53348 1.1973C5.05942 4.34492 8.85661 6.40254 13.1136 6.62801C13.0347 6.24148 12.9863 5.84078 12.9863 5.4388C12.9863 2.57849 15.274 0.249023 18.1171 0.249023C19.5947 0.249023 20.9284 0.875197 21.8659 1.8879C23.025 1.66242 24.1358 1.22823 25.1217 0.634262C24.7408 1.83894 23.9294 2.85164 22.8658 3.49456C23.8989 3.38118 24.9001 3.09258 25.8198 2.69059C25.1217 3.71875 24.2492 4.63482 23.248 5.37437Z" fill="white"/>
</svg>
