<svg width="49" height="40" viewBox="0 0 49 40" fill="none" xmlns="http://www.w3.org/2000/svg">
<path d="M43.133 9.84253C43.1648 10.2755 43.1648 10.706 43.1648 11.1366C43.1648 24.3119 33.2505 39.4938 15.1319 39.4938C9.54977 39.4938 4.36393 37.8584 0 35.0179C0.792553 35.1095 1.55575 35.1416 2.3801 35.1416C6.9862 35.1416 11.2254 33.568 14.6133 30.8835C10.2812 30.7919 6.65108 27.9218 5.39865 23.9729C6.00774 24.0645 6.61928 24.1263 7.26017 24.1263C8.14323 24.1263 9.03118 24.0026 9.85554 23.7874C5.3375 22.862 1.95447 18.8512 1.95447 14.0067V13.883C3.26806 14.6228 4.79201 15.0854 6.40647 15.1473C3.75239 13.3609 2.01318 10.3052 2.01318 6.8487C2.01318 4.99797 2.49997 3.30064 3.35367 1.82104C8.20439 7.86561 15.4964 11.817 23.6714 12.25C23.5197 11.5077 23.4268 10.7382 23.4268 9.96624C23.4268 4.47343 27.8201 0 33.2799 0C36.1174 0 38.6785 1.20248 40.4789 3.14723C42.7049 2.71424 44.8379 1.88042 46.7312 0.739798C45.9998 3.05321 44.4417 4.99797 42.3991 6.23261C44.3829 6.01488 46.3056 5.46065 48.0717 4.68869C46.7312 6.66313 45.0556 8.42232 43.133 9.84253Z" fill="black"/>
</svg>
