<svg width="59" height="59" viewBox="0 0 59 59" fill="none" xmlns="http://www.w3.org/2000/svg">
<path d="M57.9041 56.2453H54.7979V26.137L42.268 15.3906L36.1659 19.411V11.8548L20.4435 0L5.48044 11.8759V56.2453H1.09587C0.490574 56.2453 0 56.8619 0 57.6233C0 58.3833 0.490574 59 1.09587 59H5.48044H26.1217H27.2176H54.799H57.9052C58.5094 59 59 58.3833 59 57.6233C59 56.8619 58.5094 56.2453 57.9041 56.2453ZM7.67109 21.1037L19.3618 13.518V18.7409L7.67109 26.3744V21.1037ZM52.6061 39.8166L43.2907 36.285V29.1924L52.6061 34.9533V39.8166ZM26.1217 26.0316V29.9467L21.5547 27.5333V21.6052L27.223 25.3054L26.1217 26.0316ZM19.3629 27.7272L7.67219 33.9025V29.4775L19.3629 21.844V27.7272ZM19.3629 30.7151V36.8806L7.67219 41.6161V36.8919L19.3629 30.7151ZM21.5547 30.5227L26.1217 32.936V38.8501L21.5547 36.8975V30.5227ZM28.3134 35.8706L41.099 29.0912V36.3131L28.3134 41.6048V35.8706ZM41.099 26.1019L28.3134 32.8813V27.6991L41.099 19.2733V26.1019ZM29.5874 23.7475L21.5536 18.5021V13.622L32.7832 21.6404L29.5874 23.7475ZM7.67109 44.5085L19.3618 39.773V45.7517L7.67109 49.3268V44.5085ZM21.5547 39.8053L26.1217 41.758V47.8518L21.5547 45.8556V39.8053ZM28.3134 44.5029L41.099 39.2125V46.3824L28.3134 49.4195V44.5029ZM43.2907 39.1619L52.6061 42.6935V48.1791L43.2907 46.3445V39.1619ZM52.6061 31.8825L43.2907 26.123V19.602L52.6061 27.5923V31.8825ZM33.9753 19.3225L21.5547 10.4542V4.04712L33.9753 13.4127V19.3225ZM19.3629 4.11595V10.4177L7.67219 18.002V13.393L19.3629 4.11595ZM7.67109 52.163L19.3618 48.5879V56.2467H7.67109V52.163ZM21.5547 56.2453V48.7719L26.1217 50.7681V56.2439L21.5547 56.2453ZM28.3134 52.222L41.099 49.1849V56.2453H28.3134V52.222ZM43.2907 56.2453V49.133L52.6061 50.9676V56.2453H43.2907Z" fill="#00FFE6"/>
</svg>
